<svg id="Réteg_1" data-name="Réteg 1" xmlns="http://www.w3.org/2000/svg" xmlns:xlink="http://www.w3.org/1999/xlink" viewBox="0 0 1058.64 297.61"><defs><style>.cls-1{fill:url(#Névtelen_színátmenet_44);}.cls-2{fill:url(#Névtelen_színátmenet_44-2);}</style><linearGradient id="Névtelen_színátmenet_44" x1="217.45" y1="74.15" x2="217.45" y2="191.21" gradientUnits="userSpaceOnUse"><stop offset="0" stop-color="#47bdd3"/><stop offset="0.56" stop-color="#3c8abd"/><stop offset="1" stop-color="#3566ad"/></linearGradient><linearGradient id="Névtelen_színátmenet_44-2" x1="293.15" y1="215.72" x2="293.15" y2="297.92" xlink:href="#Névtelen_színátmenet_44"/></defs><title>LIQUIDHALL_shop2v</title><path class="cls-1" d="M195.92,76.44s4.27-3.85,13-1.56,9,5.84,14.69,7.84,15.25-1.86,17.67-5.56S248.81,86,248.81,86l1.85,36.64.57,19.81-2.42,15.83-2.28,10.84-34.07,22.09-11.27-3.56-9.27-9.55-6-15.12-2.28-18.24,1.71-64.3Z" transform="translate(-0.88 -0.32)"/><path d="M32.12,180.08H84.28v29.47H.88V3.26H32.12Z" transform="translate(-0.88 -0.32)"/><path d="M135.56,209.55H104.32V3.26h31.24Z" transform="translate(-0.88 -0.32)"/><path d="M253.28,14.31q13.41,14,13.41,38.17V160.33q0,24.18-13.41,38.17t-37,14q-23.58,0-37-14t-13.4-38.17V52.48q0-24.16,13.4-38.17t37-14Q239.86.32,253.28,14.31ZM202,35.24q-4.87,6-4.87,17.53V160q0,11.49,4.87,17.53t14.29,6.05q9.42,0,14.29-6.05T235.45,160V52.77q0-11.49-4.86-17.53t-14.29-6Q206.86,29.2,202,35.24Z" transform="translate(-0.88 -0.32)"/><path d="M391.93,163.28q0,23.88-12.82,36.54t-35.8,12.68q-22.4,0-35.22-12.68t-12.82-36.54V3.26h30.06V162.4Q325.33,183,343,183T360.7,162.4V3.26h31.23Z" transform="translate(-0.88 -0.32)"/><path d="M455,209.55H423.76V3.26H455Z" transform="translate(-0.88 -0.32)"/><path d="M572,16.67q13.26,13.41,13.26,38.75v102q0,25.35-13.26,38.75t-38.61,13.41H488.59V3.26h44.79Q558.71,3.26,572,16.67ZM519.82,32.14V180.67H532.2q11.2,0,16.5-6.19T554,155.33V57.49q0-13-5.31-19.16t-16.5-6.19Z" transform="translate(-0.88 -0.32)"/><path d="M715.21,209.55H684V119.67H646.84v89.88H615.6V3.26h31.24V90.2H684V3.26h31.24Z" transform="translate(-0.88 -0.32)"/><path d="M848.7,209.55H816.88l-6.78-46.86H775.62l-6.78,46.86H737.6L773.26,3.26H813ZM792.42,47.47,779.74,134.4H806L793.3,47.47Z" transform="translate(-0.88 -0.32)"/><path d="M902.33,180.08H954.5v29.47H871.1V3.26h31.23Z" transform="translate(-0.88 -0.32)"/><path d="M1005.77,180.08h52.16v29.47h-83.4V3.26h31.24Z" transform="translate(-0.88 -0.32)"/><path d="M15.3,249.23c1.44,1.45,2.15,3.54,2.15,6.28v2.68c0,2.74-.71,4.84-2.15,6.29s-3.52,2.18-6.26,2.18H6.79v13.86H1.72V247.05H9Q13.15,247.05,15.3,249.23Zm-8.51,2.51V262H8.85a3.35,3.35,0,0,0,2.67-1,4.67,4.67,0,0,0,.87-3.11v-2a4.67,4.67,0,0,0-.87-3.11,3.31,3.31,0,0,0-2.67-1Z" transform="translate(-0.88 -0.32)"/><path d="M48.25,280.52l-4-14.15H41.89v14.15H36.82V247.05h7.32q4.11,0,6.26,2.18c1.44,1.45,2.15,3.54,2.15,6.28v2.4c0,3.53-1.19,6-3.58,7.36l4.64,15.25Zm-6.36-28.78v9.94H44a3.31,3.31,0,0,0,2.67-1,4.68,4.68,0,0,0,.86-3.11v-1.72a4.68,4.68,0,0,0-.86-3.11,3.31,3.31,0,0,0-2.67-1Z" transform="translate(-0.88 -0.32)"/><path d="M87.17,251.74H78v9.46H85.4v4.69H78v9.95h9.18v4.68H72.92V247.05H87.17Z" transform="translate(-0.88 -0.32)"/><path d="M128.58,280.52h-5.06V257.28h-.1l-4.21,18.46h-3L112,257.28h-.09v23.24h-4.79V247.05h6.65l4,18h.1l3.92-18h6.83Z" transform="translate(-0.88 -0.32)"/><path d="M154.74,280.52h-5.07V247.05h5.07Z" transform="translate(-0.88 -0.32)"/><path d="M191.23,273a8,8,0,0,1-2.08,5.93,7.92,7.92,0,0,1-5.81,2.05,7.78,7.78,0,0,1-5.72-2.05,8,8,0,0,1-2.08-5.93v-26h4.88v25.82q0,3.35,2.87,3.35t2.87-3.35V247.05h5.07Z" transform="translate(-0.88 -0.32)"/><path d="M233.5,280.52h-5.07V257.28h-.1l-4.2,18.46h-3l-4.2-18.46h-.1v23.24H212V247.05h6.64l4,18h.1l3.92-18h6.84Z" transform="translate(-0.88 -0.32)"/><path d="M840,275.74h8.46v4.78H834.91V247.05H840Z" transform="translate(-0.88 -0.32)"/><path d="M883.54,280.52h-5.16l-1.1-7.6h-5.6l-1.1,7.6h-5.06l5.78-33.47h6.46Zm-9.13-26.3-2.06,14.11h4.26l-2.06-14.11Z" transform="translate(-0.88 -0.32)"/><path d="M912,280.52h-6.55l-5.64-33.47H905l3.78,25.53h.1l3.73-25.53h5.07Z" transform="translate(-0.88 -0.32)"/><path d="M950.37,248.84a8.6,8.6,0,0,1,2.18,6.2v17.5a8.58,8.58,0,0,1-2.18,6.19,9.06,9.06,0,0,1-12,0,8.58,8.58,0,0,1-2.18-6.19V255a8.6,8.6,0,0,1,2.18-6.2,9.06,9.06,0,0,1,12,0Zm-8.32,3.4a4.41,4.41,0,0,0-.79,2.84v17.41a4.41,4.41,0,0,0,.79,2.84,3.21,3.21,0,0,0,4.64,0,4.47,4.47,0,0,0,.79-2.84V255.08a4.47,4.47,0,0,0-.79-2.84,3.24,3.24,0,0,0-4.64,0Z" transform="translate(-0.88 -0.32)"/><path d="M988.51,273a8,8,0,0,1-2.08,5.93,7.92,7.92,0,0,1-5.81,2.05A7.78,7.78,0,0,1,974.9,279a8,8,0,0,1-2.08-5.93v-26h4.88v25.82q0,3.35,2.87,3.35t2.87-3.35V247.05h5.07Z" transform="translate(-0.88 -0.32)"/><path d="M1020.74,280.52l-4-14.15h-2.34v14.15h-5.07V247.05h7.31a8.44,8.44,0,0,1,6.27,2.18,8.57,8.57,0,0,1,2.15,6.28v2.4c0,3.53-1.2,6-3.59,7.36l4.64,15.25Zm-6.36-28.78v9.94h2a3.34,3.34,0,0,0,2.68-1,4.73,4.73,0,0,0,.86-3.11v-1.72a4.73,4.73,0,0,0-.86-3.11,3.34,3.34,0,0,0-2.68-1Z" transform="translate(-0.88 -0.32)"/><path d="M1057,248.53a7.5,7.5,0,0,1,2,5.55v.86l-4.87.48v-1.25a3.17,3.17,0,0,0-.67-2.17,2.85,2.85,0,0,0-3.83,0,3.12,3.12,0,0,0-.67,2.17v.44a5.52,5.52,0,0,0,.91,3,16.45,16.45,0,0,0,3.35,3.52,23.43,23.43,0,0,1,4.92,5.35,10.2,10.2,0,0,1,1.44,5.36v1.67a7.35,7.35,0,0,1-2,5.55,9.59,9.59,0,0,1-11.62,0,7.38,7.38,0,0,1-2-5.55v-2.24l4.88-.48v2.39c0,2.1,1,3.16,2.87,3.16s2.87-1.06,2.87-3.16v-1.1a5.51,5.51,0,0,0-1-3.08,18.43,18.43,0,0,0-3.44-3.57,21.82,21.82,0,0,1-4.83-5.28,10.31,10.31,0,0,1-1.39-5.33v-.72a7.93,7.93,0,0,1,13.15-5.55Z" transform="translate(-0.88 -0.32)"/><path d="M816.49,251.74h-8.94v9.46h7.17v4.69h-7.17v14.63h-5.07V247.05h14Z" transform="translate(-0.88 -0.32)"/><path d="M368.15,251.74H359v9.46h7.41v4.69H359v9.95h9.18v4.68H353.9V247.05h14.25Z" transform="translate(-0.88 -0.32)"/><path d="M397.46,266.27H387.28V261.4h10.18Z" transform="translate(-0.88 -0.32)"/><path d="M422.81,275.74h8.46v4.78H417.74V247.05h5.07Z" transform="translate(-0.88 -0.32)"/><path d="M455.23,280.52h-5.07V247.05h5.07Z" transform="translate(-0.88 -0.32)"/><path d="M490,248.84a8.6,8.6,0,0,1,2.17,6.2v17.5a9.3,9.3,0,0,1-1.38,5.21,3.44,3.44,0,0,0,2.58.81l-.48,4.69c-2.61,0-4.48-.93-5.59-2.77a9.85,9.85,0,0,1-3.3.52,7.89,7.89,0,0,1-6-2.27,8.54,8.54,0,0,1-2.18-6.19V255a8.56,8.56,0,0,1,2.18-6.2,9.06,9.06,0,0,1,12,0Zm-8.32,3.4a4.41,4.41,0,0,0-.79,2.84v17.41a4.41,4.41,0,0,0,.79,2.84,3.21,3.21,0,0,0,4.64,0,4.47,4.47,0,0,0,.79-2.84V255.08a4.47,4.47,0,0,0-.79-2.84,3.24,3.24,0,0,0-4.64,0Z" transform="translate(-0.88 -0.32)"/><path d="M528.1,273a7.2,7.2,0,0,1-7.89,8A7.77,7.77,0,0,1,514.5,279a8,8,0,0,1-2.08-5.93v-26h4.88v25.82c0,2.23,1,3.35,2.87,3.35s2.87-1.12,2.87-3.35V247.05h5.06Z" transform="translate(-0.88 -0.32)"/><path d="M554,280.52h-5.06V247.05H554Z" transform="translate(-0.88 -0.32)"/><path d="M588.59,249.23a8.53,8.53,0,0,1,2.16,6.28v16.55a8.56,8.56,0,0,1-2.16,6.29q-2.15,2.17-6.26,2.17h-7.27V247.05h7.27Q586.44,247.05,588.59,249.23Zm-8.46,2.51v24.1h2a3.35,3.35,0,0,0,2.68-1,4.71,4.71,0,0,0,.86-3.11V255.85a4.73,4.73,0,0,0-.86-3.11,3.35,3.35,0,0,0-2.68-1Z" transform="translate(-0.88 -0.32)"/><path d="M623,248.53a7.51,7.51,0,0,1,2,5.55v.86l-4.88.48v-1.25a3.17,3.17,0,0,0-.67-2.17,2.85,2.85,0,0,0-3.83,0,3.17,3.17,0,0,0-.67,2.17v.44a5.6,5.6,0,0,0,.91,3,16.45,16.45,0,0,0,3.35,3.52,23.2,23.2,0,0,1,4.92,5.35,10.2,10.2,0,0,1,1.44,5.36v1.67a7.38,7.38,0,0,1-2,5.55,9.59,9.59,0,0,1-11.62,0,7.35,7.35,0,0,1-2-5.55v-2.24l4.88-.48v2.39c0,2.1,1,3.16,2.87,3.16s2.87-1.06,2.87-3.16v-1.1a5.51,5.51,0,0,0-1-3.08,18.12,18.12,0,0,0-3.44-3.57,21.82,21.82,0,0,1-4.83-5.28,10.41,10.41,0,0,1-1.39-5.33v-.72a7.54,7.54,0,0,1,2-5.55,9,9,0,0,1,11.19,0Z" transform="translate(-0.88 -0.32)"/><path d="M684.23,280.52h-5.16l-1.1-7.6h-5.6l-1.1,7.6H666.2L672,247.05h6.46Zm-9.13-26.3L673,268.33h4.26l-2.06-14.11Z" transform="translate(-0.88 -0.32)"/><path d="M720,280.52h-5l-6.65-22.19h-.09v22.19H703.5V247.05h5.65l6,19.94h.1V247.05H720Z" transform="translate(-0.88 -0.32)"/><path d="M754.62,249.23c1.44,1.45,2.15,3.54,2.15,6.28v16.55c0,2.74-.71,4.84-2.15,6.29s-3.52,2.17-6.26,2.17h-7.27V247.05h7.27Q752.47,247.05,754.62,249.23Zm-8.46,2.51v24.1h2a3.32,3.32,0,0,0,2.67-1,4.66,4.66,0,0,0,.87-3.11V255.85a4.67,4.67,0,0,0-.87-3.11,3.31,3.31,0,0,0-2.67-1Z" transform="translate(-0.88 -0.32)"/><path d="M285.64,200.71h0L256,173,244,190l-6.11,15.35,33.57,17.95a13.45,13.45,0,0,0,14.15-22.6Zm-8.71,19.55a8,8,0,1,1,8-8A8,8,0,0,1,276.93,220.26Z" transform="translate(-0.88 -0.32)"/><path class="cls-2" d="M308.73,243.63c-14-20.95-15.58-27.91-15.58-27.91s-1.61,7-15.57,27.91c0,0-16.9,21.09-8.67,38.24s24.24,16,24.24,16,16,1.1,24.25-16S308.73,243.63,308.73,243.63Zm-17.51,47.16h0l-.2,0h-.19a17.36,17.36,0,0,1-6.92-1.36,17.77,17.77,0,0,1-9.73-9.45c-2.25-4.92-1.29-7.81-1.29-7.81h0a2.25,2.25,0,0,1,4.4.28l0,.07c.77,6.2,2.58,8.05,2.58,8.05,2.84,3.7,5.77,5.54,11,5.69a2.26,2.26,0,0,1,.33,4.5Z" transform="translate(-0.88 -0.32)"/></svg>